<svg width="300.44px" height="300.44px" viewBox="0.185 0.015 300.44 300.44" xmlns="http://www.w3.org/2000/svg"><path fill="#fff" d="M2.225 2.025h296.431v296.422H2.225z"/><path d="M278.93 125.244c-.5 9.238-3.433 20.744-6.021 28.43-10.426 30.974-22.512 50.163-50.49 50.163-8.236 0-22.865-2.182-28.238-16.836l-1.285-3.484-2.293 2.906c-8.748 11.093-21.754 17.491-35.676 17.554-10.678.051-19.265-3.528-24.81-10.342l-1.526-1.882-1.618 1.785c-5.934 6.547-16.258 10.299-28.333 10.299-9.479 0-17.665-3.208-23.051-9.056l-1.466-1.604-1.531 1.552c-5.985 6.038-15.417 9.083-27.281 8.814-14.396-.345-23.158-8.384-23.438-21.502-.436-20.228 19.139-62.792 27.247-75.729 5.267-8.643 12.498-12.834 22.124-12.834 6.556 0 11.031 1.371 13.701 4.191 2.419 2.57 2.902 4.735 3.113 9.937l.285 6.728 3.549-5.719c8.595-13.852 22.831-15.758 36.946-15.758 9.812 0 18.372 3.604 21.809 9.194l1.272 2.053 1.837-1.562c7.271-6.184 17.535-9.591 28.887-9.591 12.395 0 21.406 3.08 26.781 9.169 1.215 1.38 2.025 2.346 3.146 4.701l1.381 2.898 2.078-2.45c7.857-9.308 18.605-14.025 31.939-14.025 10.557 0 18.561 2.803 23.805 8.332 6.586 6.944 7.528 16.708 7.157 23.668M2.225 298.447h296.431V2.025H2.225v296.422z" fill="#ff0"/><path d="M287.277 136.621c-1.346 10.781-8.641 30.768-12.506 38.753-10.401 21.416-24.289 37.873-51.035 37.873-14.291 0-26.049-4.57-32.922-13.316-10.065 8.814-22.529 13.438-35.941 13.438-10.346 0-19.476-2.983-26.437-8.505-7.693 5.417-18.061 8.436-29.563 8.436-9.6 0-18.238-2.631-25.004-7.504-7.478 4.959-17.28 7.428-28.791 7.15-19.148-.449-32.37-12.593-32.75-30.223-.504-23.428 19.226-66.303 28.528-81.155 6.952-11.428 17.578-17.569 30.585-17.569 14.124 0 19.247 4.037 21.761 9.168 10.902-9.263 25.35-9.79 35.63-9.79 11.36 0 18.479 3.011 24.539 7.841 8.375-5.021 17.967-7.625 29.404-7.625 14.627 0 25.479 3.398 33.051 10.886 8.832-7.357 19.906-10.705 32.285-10.705 16.377 0 27.15 5.909 33.482 14.707 8.911 12.42 7.324 24.926 5.684 38.14M2.225 298.447h296.431V2.025H2.225v296.422z" fill="red"/><path d="M4.316 4.155H296.49v292.17H4.316V4.155zM.185 300.456h300.438V.015H.185v300.441z"/><path d="M287.141 83.455a7.187 7.187 0 0 0-7.193 7.211 7.172 7.172 0 0 0 7.193 7.186c3.994 0 7.211-3.2 7.211-7.186a7.196 7.196 0 0 0-7.211-7.211m0 1.423c3.199 0 5.805 2.587 5.805 5.788 0 3.183-2.604 5.787-5.805 5.787-3.191 0-5.762-2.604-5.762-5.787 0-3.2 2.57-5.788 5.762-5.788zm3.666 9.539l-.863-1.5c-.75-1.319-.965-1.518-1.596-1.751v-.034c1.26-.146 2.012-.966 2.012-2.088 0-1.181-.752-2.078-2.354-2.078h-3.709v7.452h1.534v-3.053h.275c.656 0 .924.069 1.226.371.294.302.751.931 1.019 1.466l.596 1.216 1.86-.001zm-4.978-4.251V88.13h1.38c1.02 0 1.553.354 1.553 1.01 0 .525-.336 1.025-1.371 1.025l-1.562.001zM249.947 124.649c-.311 7.677-11.557 38.374-15.551 45.144-1.732 2.941-3.682 5.365-7.201 5.356-3.07 0-4.434-2.174-4.52-4.657-.227-6.927 12.488-41.651 16.836-47.301 1.932-2.977 4.088-3.458 6.555-3.424 3.608.044 3.967 2.649 3.881 4.882m20.494 12.533c-2.553 12.722-8.297 27.771-14.543 38.985-10.178 18.303-22.537 20.863-33.326 20.734-10.781-.129-22.961-4.113-23.047-20.761-.068-11.955 5.088-28.826 9.472-39.884 7.624-20.054 15.421-36.397 40.071-36.104 28.741.338 23.618 25.903 21.373 37.03zm-91.261-17.829c-4.166 0-6.884 2.631-8.91 5.477-4.451 6.253-14.111 31.326-15.611 41.625-1.018 7.057 2.02 8.487 5.355 8.487 5.34 0 11.325-5.649 13.369-14.973 0 0-10.17-.251-7.365-9.266 2.717-8.754 7.893-10.643 16.457-10.997 16.879-.689 15.207 11.773 13.86 18.415-4.384 21.581-19.743 38.917-41.472 38.917-14.874 0-24.102-8.236-24.102-23.398 0-10.801 5.361-27.766 9.607-37.692 9.044-21.132 18.532-35.924 42.7-35.924 14.498 0 25.937 5.209 24.254 18.794-1.225 9.971-6.211 15.827-15.273 16.534-2.537.197-12.912-.069-9.471-9.884 1.197-3.424 1.697-6.115-3.398-6.115zm-75.614 37.366c-1 2.698-2.88 8.331-4.398 14.309 4.929-1.225 8.629-2.095 14.969-1.932 7.228.172 11.847 3.175 11.847 9.143 0 14.481-16.004 18.734-27.109 18.734-12.196 0-22.9-6.944-22.9-20.271 0-15.638 8.47-39.331 16.418-55.115 9.768-19.39 19.748-21.969 36.929-21.969 7.552 0 16.25 3.227 16.25 10.351 0 9.885-8.371 13.653-16.677 14.137-3.541.198-8.996.396-12.256.164 0 0-2.765 4.218-5.706 11.713 15.375-2.165 21.896 1.329 19.299 10.221-3.507 12.006-13.922 12.8-26.666 10.515zm-48.965 13.893c15.038-2.612 18.821 2.83 18.342 7.85-1.41 15.076-15.241 18.44-27.247 18.164-8.707-.207-16.535-4.19-16.754-14.3-.379-17.682 17.656-58.591 26.151-72.149 3.916-6.442 8.694-9.617 16.314-9.617 7.215 0 9.009 3.7 8.901 8.142-.28 11.841-19.428 47.843-25.707 61.91zm193.364-79.437c-15.525 0-26.255 6.158-33.518 14.749-1.225-2.569-2.166-3.699-3.477-5.184-5.943-6.719-15.509-9.859-28.334-9.859-12.531 0-22.979 3.916-30.23 10.083-3.769-6.124-12.744-10.187-23.573-10.187-14.149 0-29.559 2.01-38.709 16.742-.212-5.306-.699-8.108-3.683-11.273-3.623-3.83-9.488-4.839-15.202-4.839-10.415 0-18.247 4.546-23.884 13.811-8.176 13.066-28.006 56.055-27.553 76.867.28 13.455 9.307 23.142 25.453 23.521 12.619.302 22.512-3.071 28.808-9.419 5.646 6.124 14.266 9.729 24.574 9.729 11.479 0 23.042-3.44 29.869-10.979 5.753 7.055 14.796 11.161 26.427 11.107 15.215-.067 28.566-7.278 37.297-18.337 4.777 13.032 16.922 18.208 30.188 18.208 29.066 0 41.822-19.976 52.458-51.579 2.397-7.125 5.591-19.001 6.125-28.979.878-16.612-6.151-34.182-33.036-34.182z"/></svg>
<svg xmlns='http://www.w3.org/2000/svg' viewBox='0 0 512 512'><path d='M3.472 3.425V508.59h505.172V3.425H3.472z' fill='#fff' /><path d='M3.472 3.425V508.59h505.172V3.425H3.472zm471.561 209.982c-.83 15.736-5.841 35.352-10.256 48.458-17.762 52.775-38.357 85.493-86.053 85.493-14.042 0-38.954-3.725-48.133-28.709l-2.175-5.928-3.909 4.953c-14.916 18.893-37.082 29.796-60.802 29.908-18.2.083-32.823-6.011-42.284-17.64l-2.594-3.19-2.763 3.05c-10.104 11.154-27.7 17.552-48.278 17.552-16.158 0-30.11-5.494-39.29-15.45l-2.5-2.717-2.6 2.626c-10.205 10.303-26.285 15.494-46.504 15.02-24.529-.584-39.463-14.272-39.947-36.633-.74-34.474 32.625-107.009 46.435-129.063 8.966-14.732 21.296-21.874 37.707-21.874 11.17 0 18.81 2.334 23.348 7.142 4.133 4.375 4.95 8.063 5.318 16.935l.473 11.47 6.054-9.754c14.646-23.596 38.918-26.855 62.966-26.855 16.72 0 31.31 6.149 37.17 15.664l2.163 3.508 3.129-2.663c12.394-10.534 29.879-16.332 49.235-16.332 21.13 0 36.482 5.253 45.64 15.613 2.08 2.352 3.457 3.996 5.368 8.016l2.352 4.935 3.53-4.172c13.409-15.86 31.713-23.897 54.429-23.897 17.99 0 31.649 4.783 40.586 14.215 11.213 11.817 12.814 28.448 12.185 40.32z' fill='#f6ec36' /><path d='M3.472 3.425V508.59h505.172V3.425H3.472zm485.787 229.363c-2.286 18.384-14.71 52.446-21.31 66.058-17.712 36.493-41.374 64.53-86.967 64.53-24.356 0-44.39-7.767-56.106-22.698-17.156 15.035-38.39 22.91-61.254 22.91-17.614 0-33.18-5.086-45.051-14.493-13.1 9.23-30.779 14.378-50.37 14.378-16.364 0-31.088-4.494-42.612-12.799-12.749 8.46-29.457 12.665-49.069 12.2-32.632-.77-55.163-21.47-55.81-51.522-.852-39.921 32.766-112.987 48.61-138.29 11.857-19.478 29.955-29.957 52.132-29.957 24.07 0 32.795 6.874 37.09 15.627 18.572-15.772 43.191-16.679 60.719-16.679 19.348 0 31.49 5.137 41.815 13.356 14.262-8.555 30.623-13.002 50.109-13.002 24.915 0 43.425 5.795 56.337 18.558 15.056-12.532 33.914-18.243 55.018-18.243 27.907 0 46.269 10.064 57.052 25.07 15.184 21.166 12.467 42.472 9.667 64.996z' fill='#d01012' /><path d='M0 0v512h512V0H0zm504.96 7.052v497.915H7.047V7.052h497.911z' /><path d='M486.792 153.639v-3.486h2.366c1.73 0 2.63.607 2.63 1.73 0 .892-.578 1.756-2.337 1.756h-2.659zm8.493 7.232l-1.474-2.558c-1.279-2.236-1.633-2.59-2.727-2.973v-.069c2.153-.252 3.431-1.636 3.431-3.55 0-2.024-1.278-3.555-4.006-3.555h-6.336v12.712h2.626v-5.206h.48c1.124 0 1.572.127 2.081.636.513.52 1.28 1.6 1.73 2.493l1.027 2.077 3.168-.007zm-6.253-16.245c5.455 0 9.887 4.4 9.887 9.847 0 5.448-4.44 9.866-9.887 9.866-5.44 0-9.826-4.425-9.826-9.866 0-5.44 4.385-9.847 9.826-9.847zm0-2.42c-6.781 0-12.254 5.476-12.254 12.267 0 6.788 5.473 12.26 12.254 12.26a12.24 12.24 0 0 0 12.271-12.26 12.235 12.235 0 0 0-12.271-12.268zM422.262 155.344c-26.462 0-44.745 10.49-57.121 25.146-2.092-4.385-3.681-6.307-5.917-8.84-10.133-11.451-26.419-16.794-48.278-16.794-21.357 0-39.163 6.669-51.525 17.174-6.42-10.44-21.722-17.351-40.175-17.351-24.11 0-50.38 3.41-65.968 28.524-.375-9.042-1.192-13.828-6.274-19.207-6.178-6.539-16.174-8.244-25.913-8.244-17.745 0-31.085 7.752-40.698 23.535-13.941 22.264-47.729 95.518-46.967 131 .495 22.917 15.87 39.433 43.387 40.084 21.501.516 38.364-5.235 49.094-16.065 9.627 10.462 24.315 16.596 41.89 16.596 19.57 0 39.26-5.878 50.893-18.72 9.797 12.036 25.212 19.041 45.04 18.944 25.92-.127 48.686-12.42 63.556-31.256 8.16 22.21 28.845 31.032 51.445 31.032 49.524 0 71.271-34.059 89.402-87.9 4.083-12.126 9.534-32.378 10.437-49.389 1.492-28.318-10.487-58.27-56.308-58.27zM92.74 290.72c25.624-4.45 32.065 4.812 31.26 13.392-2.418 25.68-25.978 31.425-46.436 30.944-14.837-.361-28.177-7.152-28.55-24.377-.65-30.135 30.085-99.852 44.553-122.961 6.684-10.971 14.826-16.397 27.81-16.397 12.304 0 15.353 6.318 15.172 13.886-.484 20.19-33.105 81.548-43.809 105.513zm83.442-23.669c-1.695 4.588-4.902 14.197-7.5 24.385 8.41-2.103 14.718-3.562 25.523-3.302 12.31.303 20.179 5.404 20.179 15.584 0 24.68-27.278 31.927-46.2 31.927-20.776 0-39.026-11.83-39.026-34.55 0-26.634 14.439-67.022 27.99-93.928 16.639-33.04 33.64-37.432 62.926-37.432 12.867 0 27.697 5.505 27.697 17.658 0 16.841-14.27 23.264-28.416 24.077-6.04.347-15.339.679-20.902.285 0 0-4.707 7.171-9.71 19.952 26.197-3.688 37.306 2.258 32.884 17.412-5.986 20.472-23.723 21.82-45.445 17.932zm128.85-63.695c-7.084 0-11.718 4.487-15.165 9.331-7.593 10.664-24.045 53.396-26.606 70.95-1.756 12.022 3.436 14.47 9.11 14.47 9.104 0 19.31-9.63 22.792-25.518 0 0-17.329-.422-12.553-15.79 4.642-14.912 13.449-18.142 28.047-18.741 28.76-1.174 25.92 20.06 23.619 31.385-7.475 36.775-33.647 66.307-70.668 66.307-25.345 0-41.078-14.02-41.078-39.864 0-18.416 9.136-47.327 16.38-64.244 15.414-36.01 31.58-61.21 72.766-61.21 24.71 0 44.199 8.88 41.341 32.028-2.095 16.99-10.599 26.967-26.046 28.174-4.32.336-21.996-.112-16.133-16.834 2.04-5.849 2.886-10.444-5.806-10.444zm155.544 30.392c-4.353 21.682-14.147 47.327-24.778 66.44-17.344 31.187-38.412 35.555-56.8 35.334-18.398-.22-39.123-7.012-39.282-35.384-.112-20.37 8.674-49.122 16.134-67.969 13.001-34.167 26.288-62.026 68.29-61.524 48.982.582 40.247 44.141 36.436 63.103zm-41.551-29.68c-4.205-.058-7.875.766-11.173 5.852-7.41 9.598-29.07 68.789-28.687 80.594.137 4.241 2.481 7.951 7.705 7.951 5.993.008 9.324-4.136 12.268-9.135 6.817-11.535 25.985-63.855 26.512-76.935.156-3.812-.48-8.251-6.625-8.327z' /></svg>
